HIERARCHY
ROOT Hips
{
	OFFSET 0.000000 97.167313 0.000000
	CHANNELS 6 Xposition Yposition Zposition Xrotation Yrotation Zrotation
	JOINT Spine
	{
		OFFSET 0.000000 13.784798 0.064400
		CHANNELS 3 Xrotation Yrotation Zrotation
		JOINT Spine1
		{
			OFFSET 0.000000 12.037903 0.404700
			CHANNELS 3 Xrotation Yrotation Zrotation
			JOINT Spine2
			{
				OFFSET 0.000000 17.795601 0.420200
				CHANNELS 3 Xrotation Yrotation Zrotation
				JOINT Neck
				{
					OFFSET 0.000000 39.131302 11.954600
					CHANNELS 3 Xrotation Yrotation Zrotation
					JOINT Head
					{
						OFFSET 0.000000 14.456192 15.627699
						CHANNELS 3 Xrotation Yrotation Zrotation
						JOINT HeadTop_End
						{
							OFFSET 0.000000 15.703506 7.603401
							CHANNELS 3 Xrotation Yrotation Zrotation
							End Site
							{
								OFFSET 0.000000 17.447403 0.000000
							}
						}
					}
				}
				JOINT LeftShoulder
				{
					OFFSET 17.399500 24.608795 1.168800
					CHANNELS 3 Xrotation Yrotation Zrotation
					JOINT LeftArm
					{
						OFFSET 18.980635 5.765305 1.818600
						CHANNELS 3 Xrotation Yrotation Zrotation
						JOINT LeftForeArm
						{
							OFFSET 49.290169 0.000000 0.000000
							CHANNELS 3 Xrotation Yrotation Zrotation
							JOINT LeftHand
							{
								OFFSET 31.562012 0.000000 0.000000
								CHANNELS 3 Xrotation Yrotation Zrotation
								JOINT LeftHandThumb1
								{
									OFFSET 6.133995 -4.388519 7.076070
									CHANNELS 3 Xrotation Yrotation Zrotation
									JOINT LeftHandThumb2
									{
										OFFSET 6.037666 -3.485840 3.485847
										CHANNELS 3 Xrotation Yrotation Zrotation
										JOINT LeftHandThumb3
										{
											OFFSET 6.496506 -3.750763 3.750761
											CHANNELS 3 Xrotation Yrotation Zrotation
											JOINT LeftHandThumb4
											{
												OFFSET 5.616882 -3.242905 3.242910
												CHANNELS 3 Xrotation Yrotation Zrotation
												End Site
												{
													OFFSET -1.254608 7.132141 0.375429
												}
											}
										}
									}
								}
								JOINT LeftHandPinky1
								{
									OFFSET 18.920792 -0.453171 -11.426712
									CHANNELS 3 Xrotation Yrotation Zrotation
									JOINT LeftHandPinky2
									{
										OFFSET 4.919586 0.000000 0.000000
										CHANNELS 3 Xrotation Yrotation Zrotation
										JOINT LeftHandPinky3
										{
											OFFSET 5.233047 0.000000 0.000000
											CHANNELS 3 Xrotation Yrotation Zrotation
											JOINT LeftHandPinky4
											{
												OFFSET 5.571716 0.000000 0.000000
												CHANNELS 3 Xrotation Yrotation Zrotation
												End Site
												{
													OFFSET -3.459808 4.342407 -0.466164
												}
											}
										}
									}
								}
								JOINT LeftHandRing1
								{
									OFFSET 22.726120 -0.094986 -6.500475
									CHANNELS 3 Xrotation Yrotation Zrotation
									JOINT LeftHandRing2
									{
										OFFSET 6.408615 0.000000 0.000000
										CHANNELS 3 Xrotation Yrotation Zrotation
										JOINT LeftHandRing3
										{
											OFFSET 6.150223 0.000000 0.000000
											CHANNELS 3 Xrotation Yrotation Zrotation
											JOINT LeftHandRing4
											{
												OFFSET 6.145386 0.000000 0.000000
												CHANNELS 3 Xrotation Yrotation Zrotation
												End Site
												{
													OFFSET -3.671402 4.923981 -0.202372
												}
											}
										}
									}
								}
								JOINT LeftHandMiddle1
								{
									OFFSET 23.373947 0.000000 0.000001
									CHANNELS 3 Xrotation Yrotation Zrotation
									JOINT LeftHandMiddle2
									{
										OFFSET 6.996567 0.000000 0.000000
										CHANNELS 3 Xrotation Yrotation Zrotation
										JOINT LeftHandMiddle3
										{
											OFFSET 7.015945 0.000000 0.000000
											CHANNELS 3 Xrotation Yrotation Zrotation
											JOINT LeftHandMiddle4
											{
												OFFSET 7.721573 0.000000 0.000000
												CHANNELS 3 Xrotation Yrotation Zrotation
												End Site
												{
													OFFSET -4.651108 6.158463 0.251582
												}
											}
										}
									}
								}
								JOINT LeftHandIndex1
								{
									OFFSET 21.310577 -0.490082 6.209344
									CHANNELS 3 Xrotation Yrotation Zrotation
									JOINT LeftHandIndex2
									{
										OFFSET 7.536453 0.000000 0.000000
										CHANNELS 3 Xrotation Yrotation Zrotation
										JOINT LeftHandIndex3
										{
											OFFSET 7.512344 0.000000 0.000000
											CHANNELS 3 Xrotation Yrotation Zrotation
											JOINT LeftHandIndex4
											{
												OFFSET 10.212402 0.000000 0.000001
												CHANNELS 3 Xrotation Yrotation Zrotation
												End Site
												{
													OFFSET -5.180801 8.690506 1.388433
												}
											}
										}
									}
								}
							}
						}
					}
				}
				JOINT RightShoulder
				{
					OFFSET -17.399500 24.608795 1.168800
					CHANNELS 3 Xrotation Yrotation Zrotation
					JOINT RightArm
					{
						OFFSET -18.980635 5.765305 1.818600
						CHANNELS 3 Xrotation Yrotation Zrotation
						JOINT RightForeArm
						{
							OFFSET -49.290169 0.000000 0.000000
							CHANNELS 3 Xrotation Yrotation Zrotation
							JOINT RightHand
							{
								OFFSET -31.562012 0.000000 0.000000
								CHANNELS 3 Xrotation Yrotation Zrotation
								JOINT RightHandThumb1
								{
									OFFSET -6.133995 -4.388519 7.076070
									CHANNELS 3 Xrotation Yrotation Zrotation
									JOINT RightHandThumb2
									{
										OFFSET -6.037666 -3.485840 3.485847
										CHANNELS 3 Xrotation Yrotation Zrotation
										JOINT RightHandThumb3
										{
											OFFSET -6.496506 -3.750763 3.750761
											CHANNELS 3 Xrotation Yrotation Zrotation
											JOINT RightHandThumb4
											{
												OFFSET -5.616882 -3.242905 3.242910
												CHANNELS 3 Xrotation Yrotation Zrotation
												End Site
												{
													OFFSET 1.254608 7.132141 0.375429
												}
											}
										}
									}
								}
								JOINT RightHandIndex1
								{
									OFFSET -21.310577 -0.490082 6.209344
									CHANNELS 3 Xrotation Yrotation Zrotation
									JOINT RightHandIndex2
									{
										OFFSET -7.536453 0.000000 0.000000
										CHANNELS 3 Xrotation Yrotation Zrotation
										JOINT RightHandIndex3
										{
											OFFSET -7.512344 0.000000 0.000000
											CHANNELS 3 Xrotation Yrotation Zrotation
											JOINT RightHandIndex4
											{
												OFFSET -10.212402 0.000000 0.000001
												CHANNELS 3 Xrotation Yrotation Zrotation
												End Site
												{
													OFFSET 5.180801 8.690506 1.388433
												}
											}
										}
									}
								}
								JOINT RightHandMiddle1
								{
									OFFSET -23.373947 0.000000 0.000001
									CHANNELS 3 Xrotation Yrotation Zrotation
									JOINT RightHandMiddle2
									{
										OFFSET -6.996567 0.000000 0.000000
										CHANNELS 3 Xrotation Yrotation Zrotation
										JOINT RightHandMiddle3
										{
											OFFSET -7.015945 0.000000 0.000000
											CHANNELS 3 Xrotation Yrotation Zrotation
											JOINT RightHandMiddle4
											{
												OFFSET -7.721573 0.000000 0.000000
												CHANNELS 3 Xrotation Yrotation Zrotation
												End Site
												{
													OFFSET 4.651108 6.158463 0.251582
												}
											}
										}
									}
								}
								JOINT RightHandRing1
								{
									OFFSET -22.726120 -0.094986 -6.500475
									CHANNELS 3 Xrotation Yrotation Zrotation
									JOINT RightHandRing2
									{
										OFFSET -6.408615 0.000000 0.000000
										CHANNELS 3 Xrotation Yrotation Zrotation
										JOINT RightHandRing3
										{
											OFFSET -6.150223 0.000000 0.000000
											CHANNELS 3 Xrotation Yrotation Zrotation
											JOINT RightHandRing4
											{
												OFFSET -6.145386 0.000000 0.000000
												CHANNELS 3 Xrotation Yrotation Zrotation
												End Site
												{
													OFFSET 3.671402 4.923981 -0.202372
												}
											}
										}
									}
								}
								JOINT RightHandPinky1
								{
									OFFSET -18.920792 -0.453171 -11.426712
									CHANNELS 3 Xrotation Yrotation Zrotation
									JOINT RightHandPinky2
									{
										OFFSET -4.919586 0.000000 0.000000
										CHANNELS 3 Xrotation Yrotation Zrotation
										JOINT RightHandPinky3
										{
											OFFSET -5.233047 0.000000 0.000000
											CHANNELS 3 Xrotation Yrotation Zrotation
											JOINT RightHandPinky4
											{
												OFFSET -5.571716 0.000000 0.000000
												CHANNELS 3 Xrotation Yrotation Zrotation
												End Site
												{
													OFFSET 3.459808 4.342407 -0.466164
												}
											}
										}
									}
								}
							}
						}
					}
				}
			}
		}
	}
	JOINT LeftUpLeg
	{
		OFFSET 19.899099 -7.885101 -3.429500
		CHANNELS 3 Xrotation Yrotation Zrotation
		JOINT LeftLeg
		{
			OFFSET 1.745560 -36.997807 10.304700
			CHANNELS 3 Xrotation Yrotation Zrotation
			JOINT LeftFoot
			{
				OFFSET -1.745558 -29.803308 -13.615400
				CHANNELS 3 Xrotation Yrotation Zrotation
				JOINT LeftToeBase
				{
					OFFSET 1.181900 -18.539904 15.226099
					CHANNELS 3 Xrotation Yrotation Zrotation
					JOINT LeftToe_End
					{
						OFFSET -0.863701 1.402801 16.534700
						CHANNELS 3 Xrotation Yrotation Zrotation
						End Site
						{
							OFFSET 0.000000 16.616566 0.000000
						}
					}
				}
			}
		}
	}
	JOINT RightUpLeg
	{
		OFFSET -19.899099 -7.885101 -3.429500
		CHANNELS 3 Xrotation Yrotation Zrotation
		JOINT RightLeg
		{
			OFFSET -1.745560 -36.997807 10.304700
			CHANNELS 3 Xrotation Yrotation Zrotation
			JOINT RightFoot
			{
				OFFSET 1.745558 -29.803308 -13.615400
				CHANNELS 3 Xrotation Yrotation Zrotation
				JOINT RightToeBase
				{
					OFFSET -1.181900 -18.539904 15.226099
					CHANNELS 3 Xrotation Yrotation Zrotation
					JOINT RightToe_End
					{
						OFFSET 0.863701 1.402801 16.534700
						CHANNELS 3 Xrotation Yrotation Zrotation
						End Site
						{
							OFFSET 0.000000 16.616566 0.000000
						}
					}
				}
			}
		}
	}
}
MOTION
Frames: 4
Frame Time: 0.033333
-0.924551 86.059631 1.788482 5.048656 -15.645523 0.435111 23.111350 4.264847 -0.556813 3.699122 1.240176 -0.846331 3.692588 1.312478 -0.857370 -12.698244 1.123398 2.281902 -14.088305 7.829661 -3.298854 0.000000 0.000000 -0.000000 7.811593 -20.950963 9.744734 -33.643032 -3.124198 -85.445626 0.000024 -42.998305 -4.823159 -17.287079 -10.866552 -12.599005 -7.471938 1.860693 -7.166913 30.987025 27.310508 -4.510893 83.254637 13.297945 -10.940307 0.000003 0.000001 0.000000 -17.098994 22.128942 -43.123195 0.019732 0.027028 -78.662886 0.004938 0.007736 -26.297159 0.000000 0.000001 -0.000004 -6.443167 23.132662 -76.210165 0.013344 0.983454 -51.003601 6.785074 8.429323 -40.138723 -0.000001 0.000001 0.000002 1.616634 16.582647 -84.688813 0.018020 0.022053 -72.884860 -1.302658 -0.091462 -19.943212 0.000002 0.000001 0.000004 -4.713148 11.342512 -75.220955 -0.816402 3.074009 -46.874629 -4.740617 0.379136 -78.699468 -0.000000 0.000003 0.000002 13.917692 27.239894 -23.496418 -43.128570 -5.411291 84.812242 0.000080 58.104597 5.767197 -18.206894 16.096512 8.636280 9.347181 2.810563 -11.364513 16.169102 -43.265997 15.843587 32.491787 -44.566807 5.661119 0.000001 0.000002 0.000003 17.076812 -0.396522 31.924335 -0.204418 -0.284214 112.811550 1.553139 -1.173026 33.344546 -0.000000 -0.000003 -0.000001 9.205489 -5.035908 102.738073 0.014986 -0.019205 61.018513 1.871353 0.346201 31.443794 -0.000000 0.000000 -0.000004 5.569163 -8.935228 107.329087 0.547989 -0.005789 41.263714 0.739124 0.837864 51.122228 0.000001 -0.000001 -0.000005 6.511231 -17.148242 98.228010 0.007410 -0.015761 43.845723 0.011243 -0.024781 57.754570 0.000001 -0.000000 0.000002 -35.893259 1.735184 12.727137 30.867237 2.913107 0.600532 1.377863 1.411506 -8.464159 -0.359399 -1.379838 -0.238584 -0.000000 -0.000000 -0.000000 -8.131025 -10.848395 -15.449931 28.346345 -3.612537 2.769228 -21.641372 -5.288050 13.815518 -1.225841 1.216083 -0.217467 -0.000000 -0.000000 0.000000 
-0.889328 86.034439 1.733598 5.037943 -16.227181 0.494290 23.117212 4.353820 -0.553038 3.678787 1.304123 -0.850523 3.672133 1.375555 -0.864476 -13.000394 2.224551 1.887412 -13.930417 9.001489 -3.326596 0.000000 -0.000000 0.000000 7.549168 -20.634826 8.867788 -33.753999 -3.967028 -84.994034 0.000003 -43.669641 -3.983668 -17.295437 -9.823976 -12.930724 -7.471932 1.860691 -7.166912 30.987028 27.310515 -4.510889 83.254644 13.297943 -10.940305 0.000001 0.000002 -0.000002 -17.423654 21.254429 -44.081218 0.018839 0.026830 -76.662699 0.004978 0.007842 -26.604321 -0.000002 0.000002 -0.000002 -6.793085 22.924055 -76.193417 0.013306 0.979872 -50.545224 6.709877 8.482876 -39.679294 -0.000002 0.000000 -0.000000 1.629738 16.569759 -84.504863 0.017965 0.022018 -72.696633 -1.300441 -0.096038 -19.755084 -0.000003 0.000001 0.000004 -4.710326 11.347907 -75.254382 -0.816398 3.074007 -46.874622 -4.740623 0.379130 -78.699461 -0.000004 -0.000000 0.000003 12.767489 26.735606 -21.908223 -43.497790 -2.834396 83.951016 0.000043 57.335722 5.420061 -18.961495 15.774161 8.544114 9.347185 2.810565 -11.364513 16.169107 -43.265990 15.843580 32.491797 -44.566807 5.661122 0.000002 0.000001 0.000003 17.076812 -0.396522 31.924328 -0.204418 -0.284215 112.811550 1.553140 -1.173022 33.344546 -0.000002 -0.000001 -0.000001 9.205489 -5.035903 102.738073 0.014990 -0.019205 61.018513 1.871353 0.346200 31.443794 0.000000 0.000000 -0.000004 5.569163 -8.935224 107.329087 0.547993 -0.005792 41.263707 0.739124 0.837864 51.122228 0.000000 0.000001 -0.000002 6.511233 -17.148237 98.228010 0.007419 -0.015763 43.845723 0.011242 -0.024789 57.754570 0.000001 -0.000000 0.000002 -35.707133 1.739917 12.947257 31.061692 3.325802 0.540041 1.137281 1.485626 -8.636920 -0.283415 -1.290712 -0.296843 -0.000000 -0.000000 0.000000 -8.643336 -10.807728 -15.559381 28.552665 -3.059866 2.704112 -21.522848 -5.166083 13.615550 -1.219862 1.216310 -0.216678 -0.000000 0.000000 0.000000 
-0.852055 85.980377 1.639034 5.046903 -17.011216 0.595687 23.129382 4.459897 -0.564081 3.663216 1.389913 -0.859501 3.656701 1.460841 -0.877337 -13.267160 3.372221 1.453684 -13.847332 10.245874 -3.399598 -0.000000 -0.000001 -0.000000 7.261360 -20.335582 7.874388 -33.900759 -5.314810 -84.004162 0.000044 -44.245289 -3.519526 -17.917173 -8.969240 -12.895515 -7.471933 1.860692 -7.166919 30.987025 27.310506 -4.510891 83.254637 13.297946 -10.940313 -0.000000 0.000001 -0.000002 -17.707563 20.319777 -45.251530 0.017905 0.026569 -74.476198 0.005021 0.007946 -26.913430 -0.000001 0.000000 -0.000002 -7.164572 22.702224 -76.213074 0.013126 0.979742 -50.053682 6.628609 8.539730 -39.185734 -0.000001 0.000001 0.000005 1.636681 16.557792 -84.304683 0.017874 0.021985 -72.494501 -1.299040 -0.100841 -19.553013 -0.000001 0.000000 0.000004 -4.707261 11.353790 -75.290896 -0.816403 3.074009 -46.874625 -4.740618 0.379135 -78.699468 -0.000001 0.000001 0.000001 11.748299 26.342281 -20.499928 -43.948453 -0.105511 82.878731 0.000025 56.461158 5.193604 -19.935531 15.545145 8.282567 9.347185 2.810562 -11.364514 16.169109 -43.265997 15.843582 32.491790 -44.566807 5.661122 -0.000003 0.000001 0.000001 17.076815 -0.396519 31.924328 -0.204415 -0.284214 112.811550 1.553139 -1.173027 33.344543 -0.000000 -0.000003 -0.000002 9.205491 -5.035900 102.738073 0.014986 -0.019202 61.018519 1.871353 0.346201 31.443797 -0.000000 -0.000000 -0.000004 5.569162 -8.935226 107.329087 0.547989 -0.005790 41.263707 0.739123 0.837866 51.122228 -0.000003 -0.000002 -0.000007 6.511230 -17.148242 98.228010 0.007408 -0.015763 43.845723 0.011245 -0.024787 57.754570 0.000002 -0.000004 -0.000002 -35.489861 1.707902 13.264310 31.339176 3.904416 0.404074 0.830971 1.582892 -8.872388 -0.254560 -1.317427 -0.333239 -0.000000 0.000000 -0.000000 -9.456475 -10.908657 -15.719680 28.905156 -2.162621 2.587798 -21.392192 -4.978092 13.280877 -1.212440 1.232839 -0.232081 0.000000 -0.000002 -0.000000 
-0.820370 85.911728 1.499741 5.046267 -17.992364 0.748021 23.171041 4.568410 -0.592992 3.660471 1.487827 -0.885876 3.655085 1.560491 -0.895519 -13.501417 4.634399 1.000140 -13.749832 11.733745 -3.572299 0.000000 0.000000 -0.000000 6.962393 -20.054492 6.756028 -33.885835 -7.349584 -82.404484 0.000048 -44.931518 -3.390379 -19.384622 -8.269087 -12.329539 -7.471931 1.860697 -7.166913 30.987028 27.310511 -4.510894 83.254644 13.297945 -10.940305 0.000003 0.000001 -0.000002 -17.941152 19.332809 -46.576887 0.016886 0.026283 -72.145949 0.005084 0.008058 -27.223502 0.000002 -0.000000 -0.000007 -7.553707 22.469512 -76.255319 0.012938 0.979605 -49.533464 6.542067 8.599127 -38.663204 -0.000003 0.000002 0.000000 1.644152 16.545175 -84.092866 0.017780 0.021966 -72.280586 -1.298769 -0.105773 -19.339168 0.000001 -0.000003 0.000004 -4.703611 11.360160 -75.330580 -0.816396 3.074005 -46.874622 -4.740618 0.379131 -78.699468 -0.000003 0.000003 0.000001 10.875056 26.063607 -19.290432 -44.441022 2.747488 81.617503 0.001855 55.545137 5.154122 -21.121067 15.368409 7.883421 9.347181 2.810561 -11.364508 16.169109 -43.266001 15.843577 32.491797 -44.566803 5.661120 -0.000001 -0.000001 -0.000000 17.076813 -0.396526 31.924332 -0.204418 -0.284218 112.811543 1.553137 -1.173022 33.344543 -0.000000 0.000000 -0.000001 9.205489 -5.035907 102.738073 0.014987 -0.019203 61.018519 1.871353 0.346201 31.443797 0.000000 0.000000 -0.000008 5.569163 -8.935230 107.329094 0.547991 -0.005792 41.263710 0.739123 0.837870 51.122234 -0.000004 -0.000003 -0.000002 6.511230 -17.148247 98.228010 0.007413 -0.015761 43.845730 0.011242 -0.024784 57.754563 0.000000 0.000000 0.000000 -35.187973 1.681787 13.667802 31.647285 4.620158 0.187646 0.486623 1.700365 -9.160277 -0.252229 -1.255793 -0.322581 -0.000000 -0.000000 0.000000 -10.513297 -11.077853 -15.925805 29.389850 -0.998493 2.425528 -21.234240 -4.732668 12.829057 -1.210131 1.279765 -0.278147 -0.000000 -0.000001 -0.000000 
